# xmcd
#
# Track frame offsets:
#	150
#	14233
#	31539
#	45205
#	63674
#	79811
#	95074
#	109127
#	128218
#	142275
#	156358
#	173664
#	187330
#	205799
#	221936
#	237199
#	251252
#	270343
#
# Disc length: 3792 seconds
#
# Revision: 0
# Processed by: cddbd v1.5.2PL0 Copyright (c) Steve Scherf et al.
# Submitted via: audiograbber 1.83.01
#
DISCID=070ece12
DTITLE=Assorted - Pop Hits Monthly Karoke April 2013
DYEAR=2013
DGENRE=Country
TTITLE0=Randy Houser - Absolutely Nothing
TTITLE1=Nashville Cast - When The Right One Comes Along
TTITLE2=Miranda Lambert - Mama's Broken Heart
TTITLE3=Stephanie Grace - Would U Be Mine
TTITLE4=Lathan Moore - Forever Man
TTITLE5=Lee Brice - Seven Days A Thousand Times
TTITLE6=Morgan Frazier - Yellow Brick Road
TTITLE7=Dan Williams - Infinity
TTITLE8=Lee Kernoghan - Ute Me
TTITLE9=Randy Houser - Absolutely Nothing w/vocals
TTITLE10=Nashville Cast - When The Right One Comes Along w/vocals
TTITLE11=Miranda Lambert - Mama's Broken Heart w/vocals
TTITLE12=Stephanie Grace - Would U Be Mine w/vocals
TTITLE13=Lathan Moore - Forever Man w/vocals
TTITLE14=Lee Brice - Seven Days A Thousand Times w/vocals
TTITLE15=Morgan Frazier - Yellow Brick Road w/vocals
TTITLE16=Dan Williams - Infinity w/vocals
TTITLE17=Lee Kernoghan - Ute Me w/vocals
EXTD=
EXTT0=
EXTT1=
EXTT2=
EXTT3=
EXTT4=
EXTT5=
EXTT6=
EXTT7=
EXTT8=
EXTT9=
EXTT10=
EXTT11=
EXTT12=
EXTT13=
EXTT14=
EXTT15=
EXTT16=
EXTT17=
PLAYORDER=
